{"title":"Justice League Throne of Atlantis 2015 DVDRIP X264 AC3-BHRG","uid":11812277,"size":1232674026,"categoryP":"video","categoryS":"movies","magnet":"?xt=urn:btih:952c5fd76734f923257cde965071bed83a88e9d2&amp;dn=Justice+League+Throne+of+Atlantis+2015+DVDRIP+X264+AC3-BHRG&amp;tr=udp%3A%2F%2Ftracker.openbittorrent.com%3A80&amp;tr=udp%3A%2F%2Fopen.demonii.com%3A1337&amp;tr=udp%3A%2F%2Ftracker.coppersurfer.tk%3A6969&amp;tr=udp%3A%2F%2Fexodus.desync.com%3A6969","seeders":24,"leechers":11,"uploader":"xxxlavalxxx","files":8,"time":1428926074,"description":" &lt;a href=&quot;http://extraimago.com/image/wi8&quot; rel=&quot;nofollow&quot; target=&quot;_NEW&quot;&gt;http://extraimago.com/image/wi8&lt;/a&gt;\n &lt;a href=&quot;\nhttp://www.imdb.com/title/tt3878542/&quot; rel=&quot;nofollow&quot; target=&quot;_NEW&quot;&gt;\nhttp://www.imdb.com/title/tt3878542/&lt;/a&gt;\n\n\nWhen Atlantian troops assault Metropolis as revenge for the death of their king, the Queen seeks help from the Justice League to find her son who has gone missing during the madness.\n\nDirector: Ethan Spaulding\nWriters: Jon Bogdanove (character created by: John Henry Irons), Heath Corson (screenplay)\nStars: Sean Astin, Rosario Dawson, Nathan Fillion\nGenres: Animation | Action | Adventure | Sci-Fi\nCountry: USA\nLanguage: English\n\n\nINFO\nFormat: Matroska\nFormat version: Version 2\nFile size: 1.13 GiB\nDuration: 1h 18mn\nOverall bit rate: 2 044 Kbps\n\nVideo\nID: 1\nFormat: AVC\nFormat/Info: Advanced Video Codec\nFormat profile: &lt;a class=&quot;__cf_email__&quot; href=&quot;/cdn-cgi/l/email-protection&quot; data-cfemail=&quot;430b2a242b030f706d73&quot;&gt;[email&amp;#160;protected]&lt;/a&gt;&lt;script cf-hash='f9e31' type=&quot;text/javascript&quot;&gt;\n/* &lt;![CDATA[ */!function(){try{var t=&quot;currentScript&quot;in document?document.currentScript:function(){for(var t=document.getElementsByTagName(&quot;script&quot;),e=t.length;e--;)if(t[e].getAttribute(&quot;cf-hash&quot;))return t[e]}();if(t&amp;&amp;t.previousSibling){var e,r,n,i,c=t.previousSibling,a=c.getAttribute(&quot;data-cfemail&quot;);if(a){for(e=&quot;&quot;,r=parseInt(a.substr(0,2),16),n=2;a.length-n;n+=2)i=parseInt(a.substr(n,2),16)^r,e+=String.fromCharCode(i);e=document.createTextNode(e),c.parentNode.replaceChild(e,c)}}}catch(u){}}();/* ]]&gt; */&lt;/script&gt;\nFormat settings, CABAC: Yes\nFormat settings, ReFrames: 5 frames\nCodec ID: V_MPEG4/ISO/AVC\nDuration: 1h 18mn\nBit rate: 1 556 Kbps\nNominal bit rate: 1 650 Kbps\nWidth: 720 pixels\nHeight: 400 pixels\nDisplay aspect ratio: 16:9\nFrame rate mode: Constant\nFrame rate: 25.000 fps\nColor space: YUV\nChroma subsampling: 4:2:0\nBit depth: 8 bits\nScan type: Progressive\nBits/(Pixel*Frame): 0.216\nStream size: 878 MiB (76%)\nDefault: Yes\nForced: No\n\nAudio\nID: 2\nFormat: AC-3\nFormat/Info: Audio Coding 3\nMode extension: CM (complete main)\nFormat settings, Endianness: Big\nCodec ID: A_AC3\nDuration: 1h 18mn\nBit rate mode: Constant\nBit rate: 448 Kbps\nChannel(s): 6 channels\nChannel positions: Front: L C R, Side: L R, LFE\nSampling rate: 44.1 KHz\nBit depth: 16 bits\nCompression mode: Lossy\nStream size: 253 MiB (22%)\nDefault: Yes\nForced: No\nIMdb:http://www.imdb.com/title/tt3878542/\nSource:\n\nJustice.League.Throne.of.Atlantis.2015.PAL.DVDR-FFMS\n\nThanks\n\nSample Enclosed\n\nSubtitles:SRT Format\nEnglish,Mandrain simplified,Polish,Portuguese &amp; Romanian\n\n &lt;a href=&quot;\nhttp://extraimago.com/image/wia&quot; rel=&quot;nofollow&quot; target=&quot;_NEW&quot;&gt;\nhttp://extraimago.com/image/wia&lt;/a&gt; &lt;a href=&quot;\nhttp://extraimago.com/image/wiw&quot; rel=&quot;nofollow&quot; target=&quot;_NEW&quot;&gt;\nhttp://extraimago.com/image/wiw&lt;/a&gt; &lt;a href=&quot;\nhttp://extraimago.com/image/wi2&quot; rel=&quot;nofollow&quot; target=&quot;_NEW&quot;&gt;\nhttp://extraimago.com/image/wi2&lt;/a&gt; &lt;a href=&quot;\nhttp://extraimago.com/image/wiN&quot; rel=&quot;nofollow&quot; target=&quot;_NEW&quot;&gt;\nhttp://extraimago.com/image/wiN&lt;/a&gt; &lt;a href=&quot;\nhttp://extraimago.com/image/wiT&quot; rel=&quot;nofollow&quot; target=&quot;_NEW&quot;&gt;\nhttp://extraimago.com/image/wiT&lt;/a&gt;","torrent":{"xt":"urn:btih:952c5fd76734f923257cde965071bed83a88e9d2","amp;dn":"Justice+League+Throne+of+Atlantis+2015+DVDRIP+X264+AC3-BHRG","amp;tr":["udp%3A%2F%2Ftracker.openbittorrent.com%3A80","udp%3A%2F%2Fopen.demonii.com%3A1337","udp%3A%2F%2Ftracker.coppersurfer.tk%3A6969","udp%3A%2F%2Fexodus.desync.com%3A6969"],"infoHash":"952c5fd76734f923257cde965071bed83a88e9d2","infoHashBuffer":{"type":"Buffer","data":[149,44,95,215,103,52,249,35,37,124,222,150,80,113,190,216,58,136,233,210]},"announce":[],"urlList":[]}}